<?xml version="1.0" encoding="UTF-8"?>
<svg width="48" height="48" viewBox="0 0 12.7 12.7" xmlns="http://www.w3.org/2000/svg">
	<defs>
		<linearGradient id="b" x1="0" y1="1" x2=".79" y2="-.14">
			<stop stop-color="#ff8008" offset="0"/>
			<stop stop-color="#ffc037" offset="1"/>
		</linearGradient>
		<clipPath id="a">
			<path d="M5.026 7.48V3.924h1.627v6.172H5.086V8.983h-.064q-.21.534-.692.864-.478.33-1.173.33-.614 0-1.085-.278-.466-.277-.73-.795-.262-.523-.262-1.25v-3.93h1.623v3.653q0 .558.301.888.302.325.8.325.313 0 .59-.149.282-.148.459-.438.177-.293.173-.723zM7.857 10.2q-.39 0-.667-.273-.273-.278-.273-.667 0-.382.273-.655.277-.274.667-.274.374 0 .651.274.281.273.285.655-.004.26-.136.474-.129.213-.342.341-.209.125-.458.125zM11.81 3.924v1.23H8.149v-1.23zM9.001 2.445h1.627v5.766q0 .257.076.398.08.136.217.193.137.052.31.052.128 0 .245-.02l.18-.036.266 1.226q-.125.04-.354.092-.229.052-.55.064-.595.02-1.053-.164-.454-.19-.712-.583-.257-.394-.253-.989z" stroke-width=".283"/>
		</clipPath>
	</defs>
	<path clip-path="url(#a)" fill="url(#b)" d="M0 0h12.7v12.7H0z"/>
</svg>
