<?xml version="1.0" encoding="UTF-8"?>
<svg xmlns="http://www.w3.org/2000/svg">
	<!-- https://materialdesignicons.com -->

	<!-- Google -->
	<symbol id="reply" viewBox="0 0 24 24"><path d="M10,9V5L3,12L10,19V14.9C15,14.9 18.5,16.5 21,20C20,15 17,10 10,9Z"/></symbol>
	<symbol id="comment" viewBox="0 0 24 24"><path d="M18,8H6V6H18V8M18,11H6V9H18V11M18,14H6V12H18V14M22,4A2,2 0 0,0 20,2H4A2,2 0 0,0 2,4V16A2,2 0 0,0 4,18H18L22,22V4Z"/></symbol>
	<symbol id="star" viewBox="0 0 24 24"><path d="M12,17.27L18.18,21L16.54,13.97L22,9.24L14.81,8.62L12,2L9.19,8.62L2,9.24L7.45,13.97L5.82,21L12,17.27Z"/></symbol>
	<symbol id="megaphone" viewBox="0 0 24 24"><path d="M12,8H4A2,2 0 0,0 2,10V14A2,2 0 0,0 4,16H5V20A1,1 0 0,0 6,21H8A1,1 0 0,0 9,20V16H12L17,20V4L12,8M21.5,12C21.5,13.71 20.54,15.26 19,16V8C20.53,8.75 21.5,10.3 21.5,12Z"/></symbol>
	<symbol id="bookmark" viewBox="0 0 24 24"><path d="M17,3H7A2,2 0 0,0 5,5V21L12,18L19,21V5C19,3.89 18.1,3 17,3Z"/></symbol>
	<symbol id="quote" viewBox="0 0 24 24"><path d="M14,17H17L19,13V7H13V13H16M6,17H9L11,13V7H5V13H8L6,17Z"/></symbol>
	<symbol id="download" viewBox="0 0 24 24"><path d="M5,20H19V18H5M19,9H15V3H9V9H5L12,16L19,9Z"/></symbol>
	<symbol id="camera" viewBox="0 0 24 24"><path d="M4,4H7L9,2H15L17,4H20A2,2 0 0,1 22,6V18A2,2 0 0,1 20,20H4A2,2 0 0,1 2,18V6A2,2 0 0,1 4,4M12,7A5,5 0 0,0 7,12A5,5 0 0,0 12,17A5,5 0 0,0 17,12A5,5 0 0,0 12,7M12,9A3,3 0 0,1 15,12A3,3 0 0,1 12,15A3,3 0 0,1 9,12A3,3 0 0,1 12,9Z"/></symbol>
	<symbol id="calendar" viewBox="0 0 24 24"><path d="M9,10H7V12H9V10M13,10H11V12H13V10M17,10H15V12H17V10M19,3H18V1H16V3H8V1H6V3H5C3.89,3 3,3.9 3,5V19A2,2 0 0,0 5,21H19A2,2 0 0,0 21,19V5A2,2 0 0,0 19,3M19,19H5V8H19V19Z"/></symbol>
	<symbol id="update" viewBox="0 0 24 24"><path d="M21,10.12H14.22L16.96,7.3C14.23,4.6 9.81,4.5 7.08,7.2C4.35,9.91 4.35,14.28 7.08,17C9.81,19.7 14.23,19.7 16.96,17C18.32,15.65 19,14.08 19,12.1H21C21,14.08 20.12,16.65 18.36,18.39C14.85,21.87 9.15,21.87 5.64,18.39C2.14,14.92 2.11,9.28 5.62,5.81C9.13,2.34 14.76,2.34 18.27,5.81L21,3V10.12M12.5,8V12.25L16,14.33L15.28,15.54L11,13V8H12.5Z"/></symbol>
	<symbol id="tag" viewBox="0 0 24 24"><path d="M5.5,7A1.5,1.5 0 0,1 4,5.5A1.5,1.5 0 0,1 5.5,4A1.5,1.5 0 0,1 7,5.5A1.5,1.5 0 0,1 5.5,7M21.41,11.58L12.41,2.58C12.05,2.22 11.55,2 11,2H4C2.89,2 2,2.89 2,4V11C2,11.55 2.22,12.05 2.59,12.41L11.58,21.41C11.95,21.77 12.45,22 13,22C13.55,22 14.05,21.77 14.41,21.41L21.41,14.41C21.78,14.05 22,13.55 22,13C22,12.44 21.77,11.94 21.41,11.58Z"/></symbol>
	<symbol id="copy" viewBox="0 0 24 24"><path d="M19,21H8V7H19M19,5H8A2,2 0 0,0 6,7V21A2,2 0 0,0 8,23H19A2,2 0 0,0 21,21V7A2,2 0 0,0 19,5M16,1H4A2,2 0 0,0 2,3V17H4V3H16V1Z"/></symbol>
	<symbol id="pencil" viewBox="0 0 24 24"><path d="M16.84,2.73C16.45,2.73 16.07,2.88 15.77,3.17L13.65,5.29L18.95,10.6L21.07,8.5C21.67,7.89 21.67,6.94 21.07,6.36L17.9,3.17C17.6,2.88 17.22,2.73 16.84,2.73M12.94,6L4.84,14.11L7.4,14.39L7.58,16.68L9.86,16.85L10.15,19.41L18.25,11.3M4.25,15.04L2.5,21.73L9.2,19.94L8.96,17.78L6.65,17.61L6.47,15.29"/></symbol>
	<symbol id="lightbulb" viewBox="0 0 24 24"><path d="M12,2A7,7 0 0,0 5,9C5,11.38 6.19,13.47 8,14.74V17A1,1 0 0,0 9,18H15A1,1 0 0,0 16,17V14.74C17.81,13.47 19,11.38 19,9A7,7 0 0,0 12,2M9,21A1,1 0 0,0 10,22H14A1,1 0 0,0 15,21V20H9V21Z"/></symbol>

	<!-- Peter Noble -->
	<symbol id="addcomment" viewBox="0 0 24 24"><path d="M9,22A1,1 0 0,1 8,21V18H4A2,2 0 0,1 2,16V4C2,2.89 2.9,2 4,2H20A2,2 0 0,1 22,4V16A2,2 0 0,1 20,18H13.9L10.2,21.71C10,21.9 9.75,22 9.5,22H9M11,6V9H8V11H11V14H13V11H16V9H13V6H11Z"/></symbol>

	<!-- Michael Irigoyen -->
	<symbol id="appedit" viewBox="0 0 24 24"><path d="M11 20V22H3C1.9 22 1 21.1 1 20V4C1 2.9 1.9 2 3 2H21C22.1 2 23 2.9 23 4V12.1L22.8 11.9C22.3 11.4 21.7 11.1 21 11.1V6H3V20H11M21.4 13.3L22.7 14.6C22.9 14.8 22.9 15.2 22.7 15.4L21.7 16.4L19.6 14.3L20.6 13.3C20.7 13.2 20.8 13.1 21 13.1C21.2 13.1 21.3 13.2 21.4 13.3M21.1 16.9L15.1 23H13V20.9L19.1 14.8L21.1 16.9Z"/></symbol>

	<!-- Austin Andrews -->
	<symbol id="note" viewBox="0 0 24 24"><path d="M14,10V4.5L19.5,10M5,3C3.89,3 3,3.89 3,5V19A2,2 0 0,0 5,21H19A2,2 0 0,0 21,19V9L15,3H5Z"/></symbol>
	<symbol id="arrowl" viewBox="0 0 24 24"><path d="M2,12A10,10 0 0,1 12,2A10,10 0 0,1 22,12A10,10 0 0,1 12,22A10,10 0 0,1 2,12M18,11H10L13.5,7.5L12.08,6.08L6.16,12L12.08,17.92L13.5,16.5L10,13H18V11Z"/></symbol>

</svg>
